<?xml version="1.0" standalone="no"?>
<!DOCTYPE svg PUBLIC "-//W3C//DTD SVG 20010904//EN"
 "http://www.w3.org/TR/2001/REC-SVG-20010904/DTD/svg10.dtd">
<svg version="1.0" xmlns="http://www.w3.org/2000/svg"
 width="1024.000000pt" height="1024.000000pt" viewBox="0 0 1024.000000 1024.000000"
 preserveAspectRatio="xMidYMid meet">
<metadata>
Created by potrace 1.11, written by Peter Selinger 2001-2013
</metadata>
<g transform="translate(0.000000,1024.000000) scale(0.100000,-0.100000)"
fill="#000000" stroke="none">
<path d="M1708 9356 c-1 -17 -3 -1768 -2 -3891 0 -3506 2 -3867 16 -3931 73
-322 304 -565 626 -657 l77 -22 2240 -2 c2407 -3 2293 -5 2445 48 250 86 448
292 536 559 l29 85 3 507 3 507 502 3 502 4 88 27 c185 57 332 162 455 323 44
58 108 194 134 289 l23 80 2 1805 c3 1778 2 1806 -17 1903 -12 54 -25 106 -29
115 -5 9 -19 42 -32 72 -72 171 -249 348 -426 426 -60 27 -176 60 -238 68 -22
3 -248 5 -502 6 l-463 0 -2 853 -3 852 -210 0 -210 0 -2 -200 c0 -110 -2 -206
-2 -212 -1 -10 -520 -13 -2559 -13 l-2558 0 0 213 0 212 -211 1 -211 1 -4 -31z
m6530 -2550 c149 -50 241 -148 282 -300 11 -40 13 -298 13 -1375 0 -729 -3
-1339 -6 -1354 -31 -153 -139 -282 -284 -338 -54 -20 -76 -22 -310 -24 l-253
-2 0 1707 0 1707 253 -2 c212 -1 260 -4 305 -19z"/>
</g>
</svg>
